<?xml version="1.0" encoding="UTF-8"?>
<level>
  <owner>Fistachka</owner>
  <repo>olen3</repo>
  <version>v1.0.2</version>
  <next number="1" owner="Fistachka" repo="olen4"/>
  <readme>
    <ru>d53327c68c1f83a8574d19cdf5349d7c80ee82dc701e43b14b42976025c651a5</ru>
    <en>e24de8c8f738e0d0a4c303a50e2745a95d203797435b7accebaa426843366602</en>
  </readme>
  <license>b1b99f5538d1fd3702219bff50c665196dfa42f6ee755c37fe41a6178d6bc6e5</license>
  <exercise number="1">
    <scale>minor</scale>
    <cadenceVariant>harmonic</cadenceVariant>
    <bpm>100</bpm>
    <lowestNote>5</lowestNote>
    <tonalities>2</tonalities>
    <video name="23.mp4" size="1631635" type="video/mp4" volume="0.5">981602cb62242dd9d466203c8d54713e8cb94776f2b25c3b65f77a18dce30f55</video>
    <notes>
      <note number="1" values="5" ticks="78" durationTicks="35" ppq="96" velocity="0.789"/>
      <note number="2" values="5" ticks="126" durationTicks="35" ppq="96" velocity="0.729"/>
      <note number="3" values="5" ticks="174" durationTicks="38" ppq="96" velocity="0.794"/>
      <note number="4" values="5" ticks="222" durationTicks="35" ppq="96" velocity="0.758"/>
      <note number="5" values="5" ticks="269" durationTicks="37" ppq="96" velocity="0.712"/>
      <note number="6" values="18" ticks="316" durationTicks="41" ppq="96" velocity="0.8"/>
      <note number="7" values="5" ticks="364" durationTicks="44" ppq="96" velocity="0.8"/>
      <note number="8" values="6" ticks="412" durationTicks="42" ppq="96" velocity="0.8"/>
      <note number="9" values="7" ticks="460" durationTicks="116" ppq="96" velocity="0.8"/>
    </notes>
  </exercise>
  <exercise number="2">
    <scale>chromaticminor</scale>
    <cadenceVariant>harmonic</cadenceVariant>
    <bpm>100</bpm>
    <lowestNote>5</lowestNote>
    <tonalities>2</tonalities>
    <video name="24.mp4" size="1739868" type="video/mp4" volume="0.5">5d2b96f3b828b6ccfeeac52f62e30368ceb638d7fe3159917ef79bc4a1077f89</video>
    <notes>
      <note number="1" values="18" ticks="227" durationTicks="31" ppq="96" velocity="0.837"/>
      <note number="2" values="18" ticks="275" durationTicks="31" ppq="96" velocity="0.804"/>
      <note number="3" values="18" ticks="323" durationTicks="32" ppq="96" velocity="0.837"/>
      <note number="4" values="18" ticks="371" durationTicks="46" ppq="96" velocity="0.837"/>
      <note number="5" values="79" ticks="418" durationTicks="35" ppq="96" velocity="0.837"/>
      <note number="6" values="79" ticks="468" durationTicks="38" ppq="96" velocity="0.837"/>
      <note number="7" values="69" ticks="515" durationTicks="46" ppq="96" velocity="0.837"/>
      <note number="8" values="79" ticks="563" durationTicks="47" ppq="96" velocity="0.837"/>
      <note number="9" values="18" ticks="611" durationTicks="95" ppq="96" velocity="0.837"/>
    </notes>
  </exercise>
  <exercise number="3">
    <scale>minor</scale>
    <cadenceVariant>harmonic</cadenceVariant>
    <bpm>100</bpm>
    <lowestNote>18</lowestNote>
    <tonalities>2</tonalities>
    <video name="25.mp4" size="1663950" type="video/mp4" volume="0.5">a96ee494a016d6f470e577ec60fef3634fcd822519a4d724755def117cb37deb</video>
    <notes>
      <note number="1" values="18" ticks="97" durationTicks="35" ppq="96" velocity="0.812"/>
      <note number="2" values="18" ticks="144" durationTicks="34" ppq="96" velocity="0.769"/>
      <note number="3" values="18" ticks="192" durationTicks="30" ppq="96" velocity="0.817"/>
      <note number="4" values="18" ticks="241" durationTicks="29" ppq="96" velocity="0.812"/>
      <note number="5" values="48" ticks="289" durationTicks="30" ppq="96" velocity="0.744"/>
      <note number="6" values="48" ticks="336" durationTicks="40" ppq="96" velocity="0.822"/>
      <note number="7" values="38" ticks="388" durationTicks="46" ppq="96" velocity="0.822"/>
      <note number="8" values="28" ticks="437" durationTicks="46" ppq="96" velocity="0.822"/>
      <note number="9" values="38" ticks="486" durationTicks="95" ppq="96" velocity="0.822"/>
    </notes>
  </exercise>
  <exercise number="4">
    <scale>minor</scale>
    <cadenceVariant>harmonic</cadenceVariant>
    <bpm>100</bpm>
    <lowestNote>18</lowestNote>
    <tonalities>2</tonalities>
    <video name="26.mp4" size="2095140" type="video/mp4" volume="0.5">183f35bcaaba153d7fff62dee35d42a59aa356716f926368d9452c2dfdc33de9</video>
    <notes>
      <note number="1" values="18" ticks="93" durationTicks="42" ppq="96" velocity="0.835"/>
      <note number="2" values="28" ticks="141" durationTicks="45" ppq="96" velocity="0.803"/>
      <note number="3" values="38" ticks="189" durationTicks="96" ppq="96" velocity="0.8"/>
      <note number="4" values="18" ticks="285" durationTicks="95" ppq="96" velocity="0.8"/>
      <note number="5" values="68" ticks="380" durationTicks="33" ppq="96" velocity="0.8"/>
      <note number="6" values="68" ticks="429" durationTicks="46" ppq="96" velocity="0.8"/>
      <note number="7" values="78" ticks="476" durationTicks="47" ppq="96" velocity="0.8"/>
      <note number="8" values="68" ticks="524" durationTicks="46" ppq="96" velocity="0.8"/>
      <note number="9" values="58" ticks="572" durationTicks="162" ppq="96" velocity="0.8"/>
    </notes>
  </exercise>
  <exercise number="5">
    <scale>minor</scale>
    <cadenceVariant>harmonic</cadenceVariant>
    <bpm>100</bpm>
    <lowestNote>18</lowestNote>
    <tonalities>2</tonalities>
    <video name="27.mp4" size="801035" type="video/mp4" volume="0.5">379392999b3c36a12a8355580c27b26fe4a09726b80eeedeb3f12659d37f83e7</video>
    <notes>
      <note number="1" values="58" ticks="35" durationTicks="33" ppq="96" velocity="0.811"/>
      <note number="2" values="18" ticks="85" durationTicks="31" ppq="96" velocity="0.764"/>
      <note number="3" values="38" ticks="132" durationTicks="30" ppq="96" velocity="0.811"/>
      <note number="4" values="68" ticks="181" durationTicks="32" ppq="96" velocity="0.811"/>
      <note number="5" values="58" ticks="261" durationTicks="18" ppq="96" velocity="0.74"/>
      <note number="6" values="58" ticks="283" durationTicks="91" ppq="96" velocity="0.819"/>
    </notes>
  </exercise>
  <exercise number="6">
    <scale>minor</scale>
    <cadenceVariant>harmonic</cadenceVariant>
    <bpm>100</bpm>
    <lowestNote>18</lowestNote>
    <tonalities>2</tonalities>
    <video name="28.mp4" size="1047247" type="video/mp4" volume="0.5">9aac0cfe782d48e0ff31b59139e3d204941bbe5c20238b1d10aa70ebc024b369</video>
    <notes>
      <note number="1" values="58" ticks="22" durationTicks="24" ppq="96" velocity="0.824"/>
      <note number="2" values="48" ticks="46" durationTicks="23" ppq="96" velocity="0.799"/>
      <note number="3" values="38" ticks="70" durationTicks="23" ppq="96" velocity="0.827"/>
      <note number="4" values="28" ticks="95" durationTicks="47" ppq="96" velocity="0.827"/>
      <note number="5" values="18" ticks="142" durationTicks="48" ppq="96" velocity="0.827"/>
      <note number="6" values="68" ticks="191" durationTicks="84" ppq="96" velocity="0.827"/>
      <note number="7" values="58" ticks="277" durationTicks="95" ppq="96" velocity="0.827"/>
    </notes>
  </exercise>
  <exercise number="7">
    <scale>minor</scale>
    <cadenceVariant>harmonic</cadenceVariant>
    <bpm>100</bpm>
    <lowestNote>18</lowestNote>
    <tonalities>2</tonalities>
    <video name="29.mp4" size="935932" type="video/mp4" volume="0.5">7aabbec721c1c72e1a664b27e9bbcb50b82806da37ba9d8fa7e953520ab3547a</video>
    <notes>
      <note number="1" values="58" ticks="37" durationTicks="33" ppq="96" velocity="0.803"/>
      <note number="2" values="58" ticks="87" durationTicks="31" ppq="96" velocity="0.764"/>
      <note number="3" values="58" ticks="134" durationTicks="30" ppq="96" velocity="0.803"/>
      <note number="4" values="68" ticks="183" durationTicks="32" ppq="96" velocity="0.803"/>
      <note number="5" values="58" ticks="254" durationTicks="18" ppq="96" velocity="0.732"/>
      <note number="6" values="58" ticks="280" durationTicks="91" ppq="96" velocity="0.819"/>
    </notes>
  </exercise>
  <exercise number="8">
    <scale>chromaticminor</scale>
    <cadenceVariant>harmonic</cadenceVariant>
    <bpm>100</bpm>
    <lowestNote>18</lowestNote>
    <tonalities>2</tonalities>
    <video name="30.mp4" size="1116434" type="video/mp4" volume="0.5">be33663a64f6e0bf777f926024a6b01fd899e5f131d384b8b502ab4c6dd30743</video>
    <notes>
      <note number="1" values="58" ticks="56" durationTicks="24" ppq="96" velocity="0.829"/>
      <note number="2" values="498" ticks="80" durationTicks="23" ppq="96" velocity="0.782"/>
      <note number="3" values="58" ticks="104" durationTicks="24" ppq="96" velocity="0.819"/>
      <note number="4" values="188" ticks="129" durationTicks="47" ppq="96" velocity="0.819"/>
      <note number="5" values="68" ticks="200" durationTicks="20" ppq="96" velocity="0.819"/>
      <note number="6" values="58" ticks="224" durationTicks="95" ppq="96" velocity="0.819"/>
      <note number="7" values="48" ticks="321" durationTicks="95" ppq="96" velocity="0.819"/>
    </notes>
  </exercise>
  <exercise number="9">
    <scale>minor</scale>
    <cadenceVariant>harmonic</cadenceVariant>
    <bpm>100</bpm>
    <lowestNote>18</lowestNote>
    <tonalities>2</tonalities>
    <video name="31.mp4" size="1068696" type="video/mp4" volume="0.5">ca665b304fe911239a8d5007845e6643f8a5130f1d72f984bdb5c763209df895</video>
    <notes>
      <note number="1" values="48" ticks="48" durationTicks="50" ppq="96" velocity="0.747"/>
      <note number="2" values="38" ticks="98" durationTicks="47" ppq="96" velocity="0.842"/>
      <note number="3" values="28" ticks="145" durationTicks="47" ppq="96" velocity="0.787"/>
      <note number="4" values="188" ticks="194" durationTicks="142" ppq="96" velocity="0.756"/>
      <note number="5" values="78" ticks="339" durationTicks="46" ppq="96" velocity="0.834"/>
      <note number="6" values="68" ticks="389" durationTicks="46" ppq="96" velocity="0.757"/>
      <note number="7" values="58" ticks="443" durationTicks="49" ppq="96" velocity="0.757"/>
    </notes>
  </exercise>
  <exercise number="10">
    <scale>minor</scale>
    <cadenceVariant>harmonic</cadenceVariant>
    <bpm>100</bpm>
    <lowestNote>18</lowestNote>
    <tonalities>2</tonalities>
    <video name="32.mp4" size="801256" type="video/mp4" volume="0.5">e0535fe6164ee99968c8c4689edd45372601c219012886eb76b8a7632fed6419</video>
    <notes>
      <note number="1" values="38" ticks="74" durationTicks="48" ppq="96" velocity="0.74"/>
      <note number="2" values="28" ticks="121" durationTicks="47" ppq="96" velocity="0.835"/>
      <note number="3" values="18" ticks="190" durationTicks="24" ppq="96" velocity="0.78"/>
      <note number="4" values="78" ticks="218" durationTicks="45" ppq="96" velocity="0.782"/>
      <note number="5" values="68" ticks="266" durationTicks="46" ppq="96" velocity="0.764"/>
      <note number="6" values="58" ticks="314" durationTicks="48" ppq="96" velocity="0.827"/>
      <note number="7" values="48" ticks="363" durationTicks="47" ppq="96" velocity="0.827"/>
    </notes>
  </exercise>
  <exercise number="11">
    <scale>chromaticminor</scale>
    <cadenceVariant>harmonic</cadenceVariant>
    <bpm>100</bpm>
    <lowestNote>5</lowestNote>
    <tonalities>2</tonalities>
    <video name="33.mp4" size="1314590" type="video/mp4" volume="0.5">39641556c55f5b71c72852baece6ce1ace718cdcb121b2e8ce42f025bd007346</video>
    <notes>
      <note number="1" values="18" ticks="38" durationTicks="47" ppq="96" velocity="0.811"/>
      <note number="2" values="79" ticks="86" durationTicks="27" ppq="96" velocity="0.764"/>
      <note number="3" values="79" ticks="130" durationTicks="26" ppq="96" velocity="0.811"/>
      <note number="4" values="79" ticks="178" durationTicks="35" ppq="96" velocity="0.811"/>
      <note number="5" values="79" ticks="226" durationTicks="36" ppq="96" velocity="0.811"/>
      <note number="6" values="79" ticks="275" durationTicks="35" ppq="96" velocity="0.811"/>
      <note number="7" values="79" ticks="321" durationTicks="36" ppq="96" velocity="0.811"/>
      <note number="8" values="69" ticks="370" durationTicks="35" ppq="96" velocity="0.811"/>
      <note number="9" values="79" ticks="420" durationTicks="47" ppq="96" velocity="0.811"/>
      <note number="10" values="18" ticks="466" durationTicks="95" ppq="96" velocity="0.811"/>
    </notes>
  </exercise>
</level>
